<mxfile host="app.diagrams.net" modified="2024-05-27T16:34:47.428Z" agent="Mozilla/5.0 (Windows NT 10.0; Win64; x64) AppleWebKit/537.36 (KHTML, like Gecko) Chrome/125.0.0.0 Safari/537.36" etag="3jZT9sFMaGf-a2wo_exw" version="24.4.9" type="github">
  <diagram name="第 1 页" id="NqCgxpgKwen2SQ2uFnQW">
    <mxGraphModel dx="1687" dy="929" grid="1" gridSize="10" guides="1" tooltips="1" connect="1" arrows="1" fold="1" page="1" pageScale="1" pageWidth="827" pageHeight="1169" math="0" shadow="0">
      <root>
        <mxCell id="0" />
        <mxCell id="1" parent="0" />
        <mxCell id="g4FKLHnqn9TPL4zEAzNM-9" value="" style="edgeStyle=orthogonalEdgeStyle;rounded=0;orthogonalLoop=1;jettySize=auto;html=1;fontSize=14;" edge="1" parent="1" source="g4FKLHnqn9TPL4zEAzNM-1" target="g4FKLHnqn9TPL4zEAzNM-2">
          <mxGeometry relative="1" as="geometry" />
        </mxCell>
        <mxCell id="g4FKLHnqn9TPL4zEAzNM-1" value="图书录入" style="whiteSpace=wrap;html=1;fontSize=14;" vertex="1" parent="1">
          <mxGeometry x="110" y="20" width="120" height="60" as="geometry" />
        </mxCell>
        <mxCell id="g4FKLHnqn9TPL4zEAzNM-10" value="" style="edgeStyle=orthogonalEdgeStyle;rounded=0;orthogonalLoop=1;jettySize=auto;html=1;" edge="1" parent="1" source="g4FKLHnqn9TPL4zEAzNM-2" target="g4FKLHnqn9TPL4zEAzNM-3">
          <mxGeometry relative="1" as="geometry" />
        </mxCell>
        <mxCell id="g4FKLHnqn9TPL4zEAzNM-2" value="录入图书基本信息" style="whiteSpace=wrap;html=1;fontSize=14;" vertex="1" parent="1">
          <mxGeometry x="110" y="120" width="120" height="60" as="geometry" />
        </mxCell>
        <mxCell id="g4FKLHnqn9TPL4zEAzNM-11" value="" style="edgeStyle=orthogonalEdgeStyle;rounded=0;orthogonalLoop=1;jettySize=auto;html=1;" edge="1" parent="1" source="g4FKLHnqn9TPL4zEAzNM-3" target="g4FKLHnqn9TPL4zEAzNM-5">
          <mxGeometry relative="1" as="geometry" />
        </mxCell>
        <mxCell id="g4FKLHnqn9TPL4zEAzNM-12" value="否" style="edgeLabel;html=1;align=center;verticalAlign=middle;resizable=0;points=[];" vertex="1" connectable="0" parent="g4FKLHnqn9TPL4zEAzNM-11">
          <mxGeometry x="0.0847" relative="1" as="geometry">
            <mxPoint x="-7" as="offset" />
          </mxGeometry>
        </mxCell>
        <mxCell id="g4FKLHnqn9TPL4zEAzNM-13" value="" style="edgeStyle=orthogonalEdgeStyle;rounded=0;orthogonalLoop=1;jettySize=auto;html=1;" edge="1" parent="1" source="g4FKLHnqn9TPL4zEAzNM-3" target="g4FKLHnqn9TPL4zEAzNM-4">
          <mxGeometry relative="1" as="geometry" />
        </mxCell>
        <mxCell id="g4FKLHnqn9TPL4zEAzNM-14" value="是" style="edgeLabel;html=1;align=center;verticalAlign=middle;resizable=0;points=[];" vertex="1" connectable="0" parent="g4FKLHnqn9TPL4zEAzNM-13">
          <mxGeometry x="-0.136" y="1" relative="1" as="geometry">
            <mxPoint as="offset" />
          </mxGeometry>
        </mxCell>
        <mxCell id="g4FKLHnqn9TPL4zEAzNM-3" value="信息是否完整" style="rhombus;whiteSpace=wrap;html=1;fontSize=14;" vertex="1" parent="1">
          <mxGeometry x="105" y="210" width="130" height="80" as="geometry" />
        </mxCell>
        <mxCell id="g4FKLHnqn9TPL4zEAzNM-15" value="" style="edgeStyle=orthogonalEdgeStyle;rounded=0;orthogonalLoop=1;jettySize=auto;html=1;" edge="1" parent="1" source="g4FKLHnqn9TPL4zEAzNM-4" target="g4FKLHnqn9TPL4zEAzNM-6">
          <mxGeometry relative="1" as="geometry" />
        </mxCell>
        <mxCell id="g4FKLHnqn9TPL4zEAzNM-16" value="是" style="edgeLabel;html=1;align=center;verticalAlign=middle;resizable=0;points=[];" vertex="1" connectable="0" parent="g4FKLHnqn9TPL4zEAzNM-15">
          <mxGeometry x="-0.22" y="-1" relative="1" as="geometry">
            <mxPoint as="offset" />
          </mxGeometry>
        </mxCell>
        <mxCell id="g4FKLHnqn9TPL4zEAzNM-19" style="edgeStyle=orthogonalEdgeStyle;rounded=0;orthogonalLoop=1;jettySize=auto;html=1;exitX=1;exitY=0.5;exitDx=0;exitDy=0;entryX=0.5;entryY=1;entryDx=0;entryDy=0;" edge="1" parent="1" source="g4FKLHnqn9TPL4zEAzNM-4" target="g4FKLHnqn9TPL4zEAzNM-5">
          <mxGeometry relative="1" as="geometry" />
        </mxCell>
        <mxCell id="g4FKLHnqn9TPL4zEAzNM-20" value="否" style="edgeLabel;html=1;align=center;verticalAlign=middle;resizable=0;points=[];" vertex="1" connectable="0" parent="g4FKLHnqn9TPL4zEAzNM-19">
          <mxGeometry x="-0.4612" y="2" relative="1" as="geometry">
            <mxPoint as="offset" />
          </mxGeometry>
        </mxCell>
        <mxCell id="g4FKLHnqn9TPL4zEAzNM-4" value="各字段是否符合" style="rhombus;whiteSpace=wrap;html=1;fontSize=14;" vertex="1" parent="1">
          <mxGeometry x="105" y="340" width="130" height="80" as="geometry" />
        </mxCell>
        <mxCell id="g4FKLHnqn9TPL4zEAzNM-5" value="返回失败信息" style="whiteSpace=wrap;html=1;fontSize=14;" vertex="1" parent="1">
          <mxGeometry x="294" y="220" width="120" height="60" as="geometry" />
        </mxCell>
        <mxCell id="g4FKLHnqn9TPL4zEAzNM-17" value="" style="edgeStyle=orthogonalEdgeStyle;rounded=0;orthogonalLoop=1;jettySize=auto;html=1;" edge="1" parent="1" source="g4FKLHnqn9TPL4zEAzNM-6" target="g4FKLHnqn9TPL4zEAzNM-7">
          <mxGeometry relative="1" as="geometry" />
        </mxCell>
        <mxCell id="g4FKLHnqn9TPL4zEAzNM-6" value="插入数据库语句" style="whiteSpace=wrap;html=1;fontSize=14;" vertex="1" parent="1">
          <mxGeometry x="110" y="460" width="120" height="60" as="geometry" />
        </mxCell>
        <mxCell id="g4FKLHnqn9TPL4zEAzNM-18" value="" style="edgeStyle=orthogonalEdgeStyle;rounded=0;orthogonalLoop=1;jettySize=auto;html=1;" edge="1" parent="1" source="g4FKLHnqn9TPL4zEAzNM-7" target="g4FKLHnqn9TPL4zEAzNM-8">
          <mxGeometry relative="1" as="geometry" />
        </mxCell>
        <mxCell id="g4FKLHnqn9TPL4zEAzNM-7" value="插入数据表" style="whiteSpace=wrap;html=1;fontSize=14;" vertex="1" parent="1">
          <mxGeometry x="110" y="555" width="120" height="60" as="geometry" />
        </mxCell>
        <mxCell id="g4FKLHnqn9TPL4zEAzNM-21" style="edgeStyle=orthogonalEdgeStyle;rounded=0;orthogonalLoop=1;jettySize=auto;html=1;entryX=0.5;entryY=1;entryDx=0;entryDy=0;" edge="1" parent="1" source="g4FKLHnqn9TPL4zEAzNM-8" target="g4FKLHnqn9TPL4zEAzNM-5">
          <mxGeometry relative="1" as="geometry" />
        </mxCell>
        <mxCell id="g4FKLHnqn9TPL4zEAzNM-22" value="否" style="edgeLabel;html=1;align=center;verticalAlign=middle;resizable=0;points=[];" vertex="1" connectable="0" parent="g4FKLHnqn9TPL4zEAzNM-21">
          <mxGeometry x="-0.3585" relative="1" as="geometry">
            <mxPoint as="offset" />
          </mxGeometry>
        </mxCell>
        <mxCell id="g4FKLHnqn9TPL4zEAzNM-24" value="" style="edgeStyle=orthogonalEdgeStyle;rounded=0;orthogonalLoop=1;jettySize=auto;html=1;" edge="1" parent="1" source="g4FKLHnqn9TPL4zEAzNM-8" target="g4FKLHnqn9TPL4zEAzNM-23">
          <mxGeometry relative="1" as="geometry" />
        </mxCell>
        <mxCell id="g4FKLHnqn9TPL4zEAzNM-25" value="是" style="edgeLabel;html=1;align=center;verticalAlign=middle;resizable=0;points=[];" vertex="1" connectable="0" parent="g4FKLHnqn9TPL4zEAzNM-24">
          <mxGeometry x="-0.1457" y="-1" relative="1" as="geometry">
            <mxPoint as="offset" />
          </mxGeometry>
        </mxCell>
        <mxCell id="g4FKLHnqn9TPL4zEAzNM-8" value="返回信息是否符合" style="rhombus;whiteSpace=wrap;html=1;fontSize=14;" vertex="1" parent="1">
          <mxGeometry x="289" y="545" width="130" height="80" as="geometry" />
        </mxCell>
        <mxCell id="g4FKLHnqn9TPL4zEAzNM-23" value="返回成功信息" style="whiteSpace=wrap;html=1;fontSize=14;" vertex="1" parent="1">
          <mxGeometry x="480" y="555" width="120" height="60" as="geometry" />
        </mxCell>
      </root>
    </mxGraphModel>
  </diagram>
</mxfile>
